<svg version="1.2" xmlns="http://www.w3.org/2000/svg" viewBox="0 850 2480 390" width="2480" height="390"><style>.a{fill:#140140}.b{opacity:.35;fill:#231f20}.c{fill:#5b017b}.d{fill:#29037f}.e{opacity:.7;fill:#140140}.f{opacity:.2;fill:#231f20}</style><path class="a" d="m2244.2 914.5c-360.9-60.6-681.7-3.9-1002.1 57.7 331.3-44.4 662.3-84 1017.8-5.7 85.1 18.7 179.6 39.9 266.6 67.5l-11.9-65.6c-89-23.1-184.5-39.4-270.4-53.9z"/><path class="a" d="m579.3 1134.6c191.4 6.7 379-9.2 565.6-28.4-76.2-14.2-151.9-29.8-227.2-46.2-112.8 12.4-226.7 20.8-342.9 20.8-182.4-0.1-369.1-20-542.3-72.7-41-12.5-83.6-28.2-124.8-46.2l5 28c41.9 20.6 85.8 39 128.2 53.6 169.2 58.3 355 84.6 538.4 91.1z"/><path class="b" d="m2100.9 1148.9c-277.1 27-584.3-15.2-864.8-62.9-299.1-50.9-588.3-125.3-880.4-194-154.1-36.2-314.6-58-463-38.3l4.8 26.3c154.2-18 318.2 8.8 474.3 50.3 288.1 76.8 572.8 159.2 869.3 218.6 278.1 55.6 583.5 106.5 864.1 87.9 164.2-10.9 324.1-39.1 453.4-93.6l-18.1-100.1c-123.6 57.5-278.7 90.1-439.6 105.8z"/><path class="c" d="m1965.5 966.2c-94.1 16.2-192.3 27.6-291.6 33.5-352.7 20.8-720.2-16.3-1068.5-98.3-231.9-54.7-505.6-130.9-721.8-72.2l11.1 61.5c148.4-19.8 308.9 2.1 463 38.3 292.1 68.6 581.3 143 880.4 193.9 280.5 47.8 587.7 89.9 864.9 62.9 160.8-15.6 315.9-48.3 439.5-105.8l-47.8-263.9c-156.6 69.4-336.4 116.9-529.2 150.1z"/><path class="d" d="m1970.6 1040.5c-96 13.1-195.7 21.3-295.9 23.9-356.3 9.5-722.4-39-1065.6-131.5-229.9-61.9-500.5-146.9-723.6-93.4l2.3 12.9c148.4-19.8 308.9 2.1 463 38.3 292.1 68.6 581.3 143 880.3 193.9 280.5 47.8 587.8 89.9 864.9 62.9 160.9-15.6 316-48.3 439.6-105.8l-23.9-132c-162.4 63.1-345.9 104.2-541.1 130.8z"/><path class="e" d="m1970.5 1041.7c-96 13.1-195.7 21.3-295.9 23.9-356.4 9.5-722.5-39-1065.7-131.5-106-28.5-220.7-62-335.3-84.5 115.1 24.3 229.9 59.9 336 90.4 340.1 97.8 705.2 152.1 1063 148.5 100.7-1 201-7.6 297.8-19 196.7-23.4 382.4-61.2 547.9-121.3l-6.8-37.3c-162.4 63.1-345.8 104.1-541 130.8z"/><path class="a" d="m2231.3 853.1c-611.8-98.6-1102.6 138.5-1675.3 166.5-180.1 8.8-367-2.1-544.8-46.8-41.4-10.3-84.8-23.9-127.2-39.6l11.5 63.6c43.4 15.3 87.8 28.3 130 38.1 179.2 41.6 365.9 49.3 544.8 37.3 569.2-38.1 1046.9-284.6 1660.9-196.4 83.8 12 176.5 25.6 264.1 45.6l-3.4-18.8c-86.3-21.2-177.9-36.2-260.6-49.5z"/><path class="f" d="m2231.2 875.8c-614-88.2-1091.7 158.3-1660.9 196.4-178.9 12-365.6 4.3-544.8-37.3-42.2-9.8-86.6-22.8-130-38.1l3.5 19.2c43.4 15.3 87.8 28.2 130 38 179.2 41.7 365.9 49.3 544.8 37.4 569.1-38.1 1046.9-284.6 1660.9-196.4 83.7 12 176.5 25.6 264.1 45.5l-3.5-19.1c-87.6-20-180.3-33.6-264.1-45.6z"/></svg>