<svg version="1.2" xmlns="http://www.w3.org/2000/svg" viewBox="0 0 2480 3508" width="2480" height="3508"><style>.a{fill:#9b0049}.b{fill:#fe265e}.c{fill:#ed1c98}.d{opacity:.7;fill:#9b0049}</style><path class="a" d="m3387.8 1886.1c-78.1 57.9-166.6 110.3-247.5 157.6-384.9 225.3-863.3 265.7-1347.3 299.4 413-3.8 822.6-12.9 1187.9-137l413.3-315.6z"/><path class="a" d="m159.7 2438.6c-234.8 65.2-451.7 160.9-612.5 299.7-33.9 29.3-66.5 63-95.7 99l41.1 28c25.9-25.8 53.2-49.9 81.3-71.3 172-131.6 396.9-217.9 637.1-273.3 153.1-35.2 312.2-57 474.1-72.5q30.3-17.6 61-35 0.9-0.6 1.9-1.1c61.2-34.8 123.3-68.8 186.6-101.8q0.3-0.1 0.5-0.2c-266.4 27.5-530.5 60.4-775.4 128.5z"/><path class="b" d="m2130.2 1901.2c-394 43.3-753.9 199.6-1072.7 356.2-339.8 166.9-641.5 366.2-953.2 557.7-123.3 75.7-259.9 140.4-411.8 174.5l144.7 98.1c235.5-53.5 438.1-192.3 622.9-306 371.5-228.6 816.1-395.6 1303.2-471 137-21.2 278.6-33.8 419.9-37.9 132.8-3.9 265.1-2.3 396.6 5.9l276.3-211-256.7-174c-156-13.9-315-9.4-469.2 7.5z"/><path class="c" d="m2669.5 1962.2c-177.2-22.1-359.8-19-536.1 0.3-394 43.3-753.9 199.6-1072.6 356.2-339.8 166.9-641.6 366.2-953.3 557.7-112 68.8-235 128.4-370.5 164.3l43.7 29.7c241.4-58.4 440.3-210.8 622.1-335.6 353.6-242.8 784.3-426.4 1264-520 134.9-26.3 275-44.1 415.5-53.5 207.1-13.8 414.3-14.2 619.7 4l125.6-95.9z"/><path class="d" d="m2063.7 2117.4c-139.9 12-279.1 32.5-412.8 61.4-475.3 102.8-898.5 294.9-1242.4 544.6-107.4 78-220.6 166.2-346.4 237.6 127.1-68.5 242.5-153.5 351.8-228.5 353.6-242.7 784.3-426.4 1263.9-519.9 135-26.3 275.1-44.1 415.5-53.5 207.2-13.8 414.3-14.2 619.8 4l60.3-46.1c-235.8-22.8-473.1-20-709.7 0.4z"/></svg>