<?xml version="1.0" standalone="no"?>
<!DOCTYPE svg PUBLIC "-//W3C//DTD SVG 20010904//EN"
 "http://www.w3.org/TR/2001/REC-SVG-20010904/DTD/svg10.dtd">
<svg version="1.0" xmlns="http://www.w3.org/2000/svg"
 width="700.000000pt" height="700.000000pt" viewBox="0 0 700.000000 700.000000"
 preserveAspectRatio="xMidYMid meet">
<metadata>
Created by potrace 1.14, written by Peter Selinger 2001-2017
</metadata>
<g transform="translate(0.000000,700.000000) scale(0.100000,-0.100000)"
fill="#000000" stroke="none">
<path d="M4119 6902 c-2 -7 -18 -13 -36 -15 -17 -1 -29 -6 -25 -11 3 -5 -2 -7
-11 -3 -8 3 -18 0 -20 -7 -3 -8 -21 -12 -45 -12 -29 1 -38 -2 -32 -10 6 -7 5
-11 -3 -11 -6 0 -21 -4 -31 -9 -15 -6 -17 -4 -11 7 7 11 6 12 -7 2 -8 -7 -18
-10 -22 -6 -4 4 -4 -1 0 -11 5 -13 4 -17 -3 -13 -6 4 -23 0 -39 -7 -16 -8 -36
-16 -44 -18 -8 -2 -21 -10 -28 -18 -12 -13 -13 -13 -6 0 7 13 5 13 -9 2 -9 -8
-22 -10 -29 -6 -10 6 -10 5 0 -8 11 -14 10 -16 -9 -11 -14 4 -20 2 -16 -5 4
-6 0 -9 -10 -7 -10 1 -31 -9 -48 -24 -16 -14 -23 -18 -16 -8 12 15 12 17 -3
11 -9 -3 -16 -10 -16 -14 0 -13 -60 -40 -76 -33 -10 4 -12 0 -8 -11 5 -12 0
-16 -21 -16 -15 0 -24 -4 -20 -10 3 -5 1 -10 -6 -10 -7 0 -28 -12 -47 -27 -34
-25 -82 -38 -82 -21 0 4 -3 7 -7 7 -21 -3 -44 2 -39 9 2 4 -16 7 -40 6 -26 -1
-48 4 -55 13 -9 11 -15 11 -27 1 -9 -7 -13 -8 -10 -2 4 6 -9 14 -32 21 -24 6
-37 6 -33 1 3 -6 -5 -4 -18 3 -13 7 -39 12 -56 12 -18 0 -33 5 -33 11 0 6 -4
6 -9 -2 -6 -11 -10 -10 -15 4 -6 16 -8 16 -22 -2 -9 -10 -13 -14 -10 -9 2 6 1
17 -5 25 -5 9 -9 10 -9 4 0 -7 -11 -11 -25 -10 -14 0 -25 3 -25 6 0 3 -18 5
-40 5 -27 0 -40 4 -40 13 0 7 -5 10 -10 7 -6 -4 -8 -11 -5 -16 9 -14 -2 -11
-19 7 -9 8 -16 12 -16 7 0 -7 -49 -9 -57 -3 -9 7 -29 4 -35 -5 -5 -6 -8 -5 -8
3 0 7 -4 11 -9 7 -5 -3 -12 -1 -16 5 -4 7 -12 7 -26 0 -10 -6 -19 -8 -19 -5 0
3 -8 1 -18 -4 -11 -6 -24 -6 -35 0 -10 6 -17 6 -17 1 0 -13 -33 -10 -42 3 -5
6 -8 3 -8 -7 0 -11 -5 -15 -14 -12 -8 3 -17 1 -21 -5 -3 -6 -12 -11 -18 -11
-7 0 -6 4 3 10 8 5 11 10 6 10 -5 0 -18 -8 -29 -17 -11 -10 -18 -13 -14 -7 3
6 0 11 -7 11 -8 0 -12 -6 -9 -13 3 -8 -2 -11 -14 -10 -10 2 -24 -4 -31 -13 -8
-9 -11 -10 -7 -4 9 18 -27 4 -42 -16 -6 -9 -16 -17 -22 -17 -6 -1 -18 -2 -26
-3 -8 0 -15 -9 -15 -18 0 -15 -2 -16 -10 -3 -8 12 -10 12 -16 -3 -3 -9 -10
-15 -14 -12 -5 3 -18 -4 -29 -16 -11 -12 -24 -18 -30 -14 -6 3 -11 1 -11 -5 0
-6 -13 -16 -30 -21 -16 -6 -32 -19 -35 -30 -4 -11 -11 -17 -16 -14 -5 4 -9 1
-9 -5 0 -6 -4 -8 -10 -5 -5 3 -10 -1 -10 -10 0 -12 -5 -15 -16 -11 -12 4 -15
2 -10 -9 4 -12 0 -14 -19 -11 -14 3 -23 1 -20 -4 7 -11 -16 -50 -28 -50 -4 0
-5 5 -1 12 4 7 3 8 -5 4 -6 -4 -10 -10 -8 -14 1 -4 -15 -25 -36 -46 -23 -24
-35 -32 -31 -20 6 18 6 18 -9 -1 -9 -11 -17 -26 -17 -34 0 -8 -6 -11 -16 -7
-8 3 -12 2 -9 -4 3 -6 1 -10 -5 -10 -6 0 -8 -4 -5 -10 3 -5 1 -10 -5 -10 -6 0
-9 -4 -5 -9 3 -5 0 -13 -6 -17 -8 -5 -9 -3 -4 6 5 8 3 11 -6 8 -8 -3 -13 -11
-11 -17 1 -6 -3 -11 -9 -11 -5 0 -7 -5 -4 -10 4 -6 1 -9 -7 -8 -7 2 -12 -3
-10 -11 2 -8 -3 -11 -12 -8 -10 4 -13 1 -9 -9 3 -8 -1 -14 -10 -14 -16 0 -30
-26 -22 -41 4 -5 -1 -6 -10 -3 -10 4 -15 2 -13 -7 2 -8 -5 -13 -15 -13 -14 2
-15 -1 -6 -12 9 -11 9 -14 0 -14 -7 0 -9 -4 -6 -10 3 -5 -1 -10 -9 -10 -8 0
-18 -5 -22 -12 -5 -7 -2 -9 7 -4 8 4 3 -2 -11 -14 -14 -12 -18 -19 -10 -15 8
3 5 -2 -8 -11 -12 -9 -22 -23 -22 -30 0 -8 -5 -14 -12 -14 -6 0 -8 -3 -5 -7 4
-3 -1 -12 -11 -20 -11 -10 -12 -12 -2 -8 8 4 3 -3 -12 -15 -16 -12 -25 -27
-21 -35 3 -8 -2 -17 -10 -21 -10 -3 -13 -12 -10 -22 5 -11 2 -14 -9 -10 -11 5
-14 0 -12 -18 1 -13 -1 -22 -6 -19 -4 3 -10 -5 -13 -16 -3 -12 -10 -18 -15
-15 -6 3 -8 -2 -5 -14 3 -12 0 -20 -7 -20 -7 0 -10 -7 -6 -15 3 -8 1 -15 -5
-15 -6 0 -9 -6 -6 -14 3 -8 -3 -22 -14 -32 -11 -10 -17 -24 -15 -31 3 -7 0
-12 -7 -10 -7 1 -11 -4 -9 -10 1 -7 -2 -13 -6 -13 -4 0 -9 -9 -10 -20 -4 -43
-6 -49 -14 -44 -8 5 -12 -11 -9 -30 1 -5 -5 -6 -14 -2 -11 4 -14 2 -8 -7 14
-23 11 -54 -6 -53 -10 1 -15 -6 -13 -16 1 -10 -5 -29 -14 -43 -9 -14 -14 -31
-11 -39 3 -8 -1 -17 -10 -20 -10 -4 -13 -14 -10 -27 4 -14 2 -19 -7 -16 -8 3
-13 0 -13 -6 1 -54 -4 -87 -14 -81 -8 4 -9 -1 -4 -16 6 -19 4 -22 -10 -16 -14
5 -15 4 -7 -7 9 -10 8 -17 -1 -27 -9 -10 -9 -11 0 -6 9 5 11 2 7 -8 -3 -9 -9
-14 -13 -11 -4 2 -8 -2 -8 -9 0 -9 7 -12 16 -9 11 4 9 1 -4 -10 -10 -8 -20
-28 -21 -43 -1 -16 -3 -33 -3 -37 -1 -5 -7 -5 -13 -1 -8 5 -7 0 2 -11 9 -11
10 -16 3 -11 -10 5 -13 -2 -13 -26 0 -19 -6 -40 -12 -47 -10 -11 -10 -14 -1
-18 10 -4 9 -8 -1 -19 -11 -10 -12 -22 -6 -43 6 -22 5 -28 -4 -25 -6 2 -12 -5
-13 -16 -1 -13 3 -18 10 -14 7 3 3 -2 -7 -10 -11 -9 -14 -16 -8 -16 10 0 10
-5 2 -20 -6 -11 -8 -20 -4 -20 3 0 2 -6 -5 -13 -8 -10 -7 -17 2 -27 10 -10 8
-12 -8 -6 -15 6 -17 4 -8 -5 14 -14 6 -42 -10 -32 -6 3 -7 1 -3 -6 6 -9 12 -9
24 1 12 9 11 6 -2 -10 -11 -12 -15 -22 -11 -22 5 0 4 -5 -3 -12 -7 -7 -8 -17
-2 -29 6 -10 6 -20 1 -23 -4 -3 -7 -19 -5 -36 2 -17 0 -28 -5 -25 -5 3 -13 1
-16 -5 -4 -6 -1 -9 6 -8 6 2 14 -3 16 -9 3 -7 -1 -13 -7 -13 -10 0 -10 -4 0
-15 10 -12 9 -15 -4 -15 -10 0 -14 -5 -11 -10 4 -6 11 -8 16 -5 5 4 9 1 9 -4
0 -6 -6 -11 -13 -11 -7 0 -12 -13 -12 -29 -1 -16 2 -28 6 -25 6 3 5 -19 -1
-36 -6 -14 -5 -37 2 -52 5 -9 4 -19 0 -22 -10 -6 -10 -247 0 -262 4 -6 4 -14
1 -18 -10 -9 -10 -136 -1 -130 13 8 9 -11 -4 -25 -10 -11 -10 -13 0 -7 7 4 12
1 12 -8 0 -9 -5 -16 -11 -16 -5 0 -8 -4 -4 -10 3 -5 13 -7 23 -4 12 4 13 3 4
-3 -8 -6 -10 -17 -5 -29 6 -17 5 -18 -13 -4 -18 14 -18 14 -3 -5 9 -11 14 -26
11 -34 -3 -9 0 -11 8 -6 9 6 9 3 1 -14 -9 -16 -9 -21 1 -21 10 0 10 -2 -1 -9
-9 -6 -10 -11 -2 -15 6 -4 9 -12 5 -17 -3 -5 -1 -16 6 -24 9 -10 7 -16 -7 -24
-17 -10 -17 -10 1 -11 16 0 17 -3 8 -12 -15 -15 -15 -28 -1 -28 5 0 7 5 3 12
-4 7 -3 8 5 4 9 -6 9 -11 0 -22 -9 -11 -8 -14 2 -14 11 0 11 -2 -1 -10 -12 -7
-12 -10 -1 -10 7 0 11 -6 8 -14 -3 -7 -1 -18 4 -23 7 -7 5 -15 -4 -24 -11 -12
-11 -17 -1 -26 6 -7 11 -25 10 -42 -1 -17 2 -27 7 -24 6 4 8 -5 5 -21 -3 -14
-1 -26 3 -26 5 0 5 -7 2 -17 -4 -10 -2 -14 4 -10 5 3 10 0 10 -8 0 -8 -3 -12
-7 -10 -4 2 -7 -2 -7 -10 0 -8 4 -12 8 -9 4 2 10 0 14 -6 3 -5 1 -10 -5 -10
-7 0 -8 -6 -1 -19 6 -10 7 -21 4 -25 -3 -3 -1 -6 7 -6 9 0 10 -3 1 -14 -9 -10
-9 -15 -1 -18 7 -2 12 -22 13 -45 1 -23 5 -39 10 -36 8 5 9 -1 10 -44 1 -16 6
-31 12 -35 7 -5 6 -14 -3 -28 -12 -20 -12 -21 10 -9 23 12 23 12 5 -9 -18 -20
-18 -21 0 -31 10 -6 14 -11 10 -11 -4 0 -3 -9 3 -20 8 -14 8 -20 0 -20 -7 0
-8 -6 0 -19 7 -14 6 -21 -3 -24 -9 -4 -9 -6 1 -6 6 -1 12 -6 12 -12 0 -5 -6
-7 -12 -4 -7 4 -4 -1 6 -9 17 -13 17 -16 4 -16 -14 0 -15 -5 -8 -30 6 -21 5
-30 -3 -30 -7 0 -6 -4 3 -10 9 -6 10 -10 3 -10 -8 0 -9 -9 -3 -30 6 -21 5 -30
-3 -31 -7 0 -3 -4 8 -9 16 -7 17 -9 3 -9 -14 -1 -15 -6 -8 -30 5 -19 5 -31 -2
-33 -6 -2 -3 -11 6 -21 14 -14 15 -17 3 -17 -17 0 -11 -40 7 -52 7 -5 5 -8 -6
-8 -14 0 -15 -5 -8 -30 6 -21 5 -30 -3 -30 -7 0 -6 -4 3 -10 9 -6 10 -10 3
-10 -8 0 -9 -9 -3 -30 6 -21 5 -30 -3 -31 -7 0 -3 -4 8 -9 16 -7 17 -9 3 -9
-14 -1 -15 -6 -8 -30 5 -19 5 -31 -2 -33 -6 -2 -3 -11 6 -21 14 -14 15 -17 3
-17 -17 0 -11 -40 7 -52 7 -5 5 -8 -6 -8 -14 0 -15 -5 -8 -30 5 -18 5 -30 -1
-30 -17 0 -9 -20 9 -21 14 0 14 -2 -3 -9 -13 -6 -15 -9 -5 -9 13 -1 13 -2 0
-11 -12 -8 -12 -10 5 -11 l20 0 -20 -9 c-13 -6 -15 -9 -5 -9 13 -1 13 -2 0
-11 -12 -8 -12 -10 5 -11 l20 0 -20 -9 c-13 -6 -15 -9 -5 -9 13 -1 13 -3 1
-10 -11 -7 -10 -10 5 -14 18 -4 18 -5 0 -6 -20 -1 -20 -1 0 -17 10 -8 13 -12
5 -8 -11 5 -13 3 -8 -9 4 -10 1 -17 -6 -18 -7 0 -3 -4 8 -9 16 -7 17 -9 3 -9
-14 -1 -15 -6 -8 -31 5 -16 5 -30 0 -30 -11 0 0 -43 14 -52 7 -5 5 -8 -6 -8
-14 0 -15 -5 -8 -30 5 -16 5 -30 0 -30 -11 0 0 -43 14 -52 7 -5 5 -8 -4 -8
-12 0 -15 -9 -12 -39 3 -32 0 -39 -16 -43 -14 -4 -19 -2 -16 6 3 7 -2 13 -11
13 -10 0 -14 -6 -10 -16 4 -14 4 -14 -7 -1 -16 19 -92 25 -82 7 5 -8 3 -8 -7
0 -14 14 -33 18 -25 5 2 -4 -4 -8 -14 -8 -15 0 -17 3 -7 16 7 9 3 7 -10 -3
-12 -11 -26 -17 -30 -14 -5 3 -15 2 -23 -3 -9 -5 -19 -5 -27 2 -9 7 -15 6 -19
-7 -5 -13 -9 -14 -15 -3 -7 10 -9 11 -9 0 0 -7 -4 -10 -10 -7 -5 3 -10 -2 -10
-12 0 -15 -2 -16 -11 -3 -8 11 -12 12 -16 3 -2 -7 -11 -13 -19 -13 -8 0 -14
-6 -14 -12 0 -9 -4 -8 -10 2 -9 13 -14 11 -31 -13 -17 -22 -24 -25 -35 -16
-13 11 -19 2 -15 -23 0 -4 -6 -5 -14 -2 -9 4 -15 0 -15 -7 0 -11 -3 -11 -10 1
-5 8 -10 10 -10 4 0 -5 -7 -19 -16 -30 -8 -10 -13 -13 -9 -6 3 6 1 12 -4 12
-6 0 -11 -7 -11 -16 0 -8 -5 -12 -11 -9 -6 4 -13 -2 -16 -14 -3 -11 -14 -23
-24 -26 -10 -4 -19 -11 -19 -17 0 -5 -7 -7 -16 -4 -8 3 -12 2 -9 -4 3 -6 1
-10 -4 -10 -6 0 -11 -5 -11 -11 0 -5 5 -7 12 -3 7 4 8 3 4 -5 -4 -6 -12 -9
-17 -6 -5 4 -9 -1 -9 -9 0 -9 -5 -16 -11 -16 -5 0 -7 5 -3 12 4 7 3 8 -4 4 -6
-4 -9 -13 -5 -21 3 -8 0 -15 -6 -15 -6 0 -11 -7 -11 -16 0 -8 -4 -13 -9 -10
-5 3 -8 -2 -7 -12 0 -9 -4 -16 -10 -15 -6 1 -11 -4 -11 -12 0 -8 5 -12 11 -9
6 3 2 -2 -8 -10 -11 -9 -16 -16 -12 -16 5 0 3 -6 -4 -14 -6 -9 -11 -44 -11
-83 1 -59 2 -80 10 -126 0 -5 6 -5 12 -1 8 4 9 0 4 -15 -4 -12 -2 -21 4 -21 6
0 13 -11 17 -25 3 -14 10 -22 15 -19 8 4 14 -17 10 -38 0 -4 6 -5 14 -2 8 4
15 1 15 -5 0 -6 7 -11 15 -11 8 0 15 -5 15 -10 0 -9 25 -23 60 -35 3 -1 13 -5
23 -9 9 -5 26 -6 38 -3 15 4 18 2 10 -7 -8 -9 11 -12 82 -11 51 0 98 4 106 9
10 6 12 6 7 -2 -4 -7 -3 -12 3 -12 5 0 13 5 17 11 4 8 9 7 15 -2 7 -11 9 -11
9 2 0 11 8 15 24 14 14 -2 27 3 30 10 3 9 15 12 30 9 15 -2 26 0 26 6 0 5 6 9
13 7 6 -1 11 3 10 10 -1 6 8 10 22 8 17 -1 25 3 25 14 0 14 2 14 10 1 8 -13
10 -12 10 3 0 9 7 17 16 17 8 0 12 5 8 11 -4 7 2 7 17 -1 13 -7 21 -9 17 -5
-10 10 40 57 53 50 5 -4 12 2 16 12 4 10 15 24 26 32 10 7 16 19 13 27 -3 8 0
11 8 8 7 -3 21 6 32 18 18 22 18 22 0 8 -18 -14 -19 -14 -7 8 7 12 16 20 21
17 8 -5 26 32 22 48 -1 4 3 7 9 7 5 0 7 5 4 10 -3 6 1 13 10 16 9 4 14 13 11
20 -3 8 0 14 6 14 6 0 8 3 5 7 -4 3 1 12 10 18 15 11 15 15 4 29 -11 14 -11
16 4 16 15 0 16 2 4 17 -8 10 -9 14 -2 10 6 -4 14 -3 18 3 3 5 1 10 -5 10 -7
0 -8 5 -3 12 4 7 8 63 8 123 1 61 4 115 8 122 4 6 4 14 -1 16 -9 6 -9 208 1
224 4 6 4 14 -1 16 -9 6 -9 208 1 224 4 6 3 14 -1 17 -10 6 -9 82 1 92 3 3 2
17 -4 31 -12 33 -11 46 3 37 7 -5 8 -3 3 5 -4 7 -8 26 -9 42 -2 22 2 29 13 27
9 -2 15 -13 15 -26 -1 -15 4 -21 14 -20 8 2 16 -5 17 -15 2 -9 0 -15 -4 -12
-4 2 -8 -2 -8 -9 0 -8 6 -12 14 -9 9 4 11 0 6 -13 -5 -12 -3 -15 6 -9 10 5 11
2 6 -14 -5 -15 -2 -21 9 -21 9 0 16 -5 16 -11 0 -5 -6 -7 -12 -3 -7 4 -5 -2 5
-14 11 -12 16 -26 11 -33 -5 -8 -3 -10 6 -4 10 6 12 3 8 -13 -4 -15 -2 -19 8
-15 10 4 14 -3 14 -21 0 -16 6 -26 14 -26 9 0 12 -7 9 -18 -2 -11 4 -25 14
-33 17 -13 17 -13 3 6 -10 15 -10 17 0 8 7 -7 15 -24 16 -39 2 -15 8 -32 15
-38 9 -8 10 -7 4 4 -5 9 -4 12 1 7 5 -5 9 -12 9 -15 0 -4 4 -13 9 -21 7 -10 5
-12 -5 -7 -8 4 -6 1 5 -8 10 -8 15 -19 11 -25 -3 -6 -1 -11 5 -11 6 0 15 -11
22 -25 6 -13 15 -22 19 -19 5 3 6 -1 3 -9 -3 -8 0 -18 7 -23 8 -5 10 -3 4 6
-5 9 -4 11 4 6 9 -6 9 -11 1 -21 -9 -11 -7 -17 9 -27 12 -7 21 -21 21 -32 0
-11 3 -17 6 -13 10 10 34 -20 36 -46 1 -15 7 -23 14 -20 7 2 15 -1 20 -8 5 -8
3 -10 -7 -5 -8 4 -5 0 6 -9 11 -9 19 -22 17 -30 -1 -7 3 -17 9 -21 8 -5 10 -2
5 7 -4 8 -1 5 8 -5 8 -10 13 -23 10 -27 -3 -5 2 -9 10 -9 8 0 18 -4 21 -10 4
-6 -1 -7 -12 -4 -10 3 -6 -3 9 -13 21 -14 25 -22 16 -31 -8 -8 -5 -9 11 -5 12
3 21 2 20 -3 -1 -5 -1 -16 0 -24 1 -13 2 -13 12 0 9 12 10 11 6 -7 -3 -12 -2
-22 2 -21 16 2 31 -3 30 -9 -4 -22 3 -33 19 -33 14 0 15 -2 2 -10 -12 -8 -10
-10 8 -10 13 0 20 -4 17 -10 -3 -5 -2 -10 4 -10 5 0 13 -9 16 -20 4 -11 11
-18 16 -15 5 4 13 -4 18 -17 5 -13 27 -39 49 -58 22 -19 38 -38 35 -44 -4 -5
1 -7 11 -3 14 5 17 3 12 -8 -3 -9 0 -15 9 -15 8 0 15 -5 15 -11 0 -5 4 -7 10
-4 6 3 7 -1 4 -9 -3 -9 -1 -16 5 -16 16 0 51 -37 43 -46 -4 -4 -1 -4 5 0 15 8
65 -38 55 -49 -4 -5 4 -5 17 -2 17 4 21 3 13 -5 -13 -13 26 -48 53 -48 15 0
16 -2 4 -17 -8 -9 -9 -14 -3 -10 7 4 17 0 24 -8 7 -8 18 -15 25 -15 7 0 20
-10 29 -23 9 -12 15 -17 12 -11 -3 6 1 11 9 11 8 0 13 -2 11 -4 -6 -7 40 -53
53 -53 6 0 11 -4 11 -10 0 -5 6 -10 13 -10 8 0 19 -10 26 -22 8 -16 10 -17 6
-4 -4 15 -3 17 8 8 8 -7 17 -10 20 -7 4 3 5 2 2 -2 -8 -11 16 -33 37 -33 11 0
16 -4 12 -11 -4 -8 1 -9 16 -4 13 4 20 3 17 -2 -3 -5 -2 -15 4 -23 7 -13 9
-13 9 0 1 9 6 5 16 -10 l15 -25 -7 25 -6 25 21 -28 c13 -15 29 -27 37 -27 8 0
12 -4 9 -10 -3 -5 0 -7 8 -4 8 3 21 -2 29 -10 12 -11 18 -12 28 -3 10 9 11 9
5 -2 -6 -11 -4 -13 8 -8 11 4 14 2 11 -8 -4 -10 0 -12 15 -8 16 4 21 1 21 -13
0 -16 2 -17 10 -4 6 10 10 11 10 3 0 -7 9 -13 21 -13 13 0 18 -4 13 -12 -4 -7
-3 -8 5 -4 6 4 18 2 26 -4 8 -7 21 -10 30 -7 8 4 17 1 21 -5 5 -7 2 -8 -6 -3
-8 5 -11 4 -7 -3 4 -5 19 -9 33 -7 14 1 32 -5 41 -14 9 -8 32 -16 51 -16 20
-1 40 -9 47 -19 9 -11 15 -14 20 -6 5 8 11 8 21 -1 8 -6 14 -8 14 -3 0 5 4 3
8 -4 5 -7 25 -13 45 -14 20 -1 37 -5 37 -9 0 -4 7 -10 16 -13 10 -4 13 -2 8 6
-5 8 -2 9 10 5 10 -4 22 -7 27 -7 6 0 7 -5 3 -12 -4 -7 -3 -8 4 -4 23 14 51
14 63 0 6 -8 17 -14 23 -14 6 0 4 5 -4 10 -9 6 -10 10 -3 10 6 0 18 -7 27 -15
17 -17 30 -20 21 -5 -4 6 2 7 17 2 13 -5 46 -10 73 -11 28 -2 52 -7 53 -12 2
-6 11 -4 20 3 9 7 13 8 10 3 -4 -6 2 -11 12 -11 15 0 17 3 7 16 -8 10 -4 9 9
-3 12 -9 34 -17 50 -16 56 3 75 -1 69 -13 -4 -7 1 -4 9 6 9 11 16 15 16 9 0
-6 9 -9 20 -6 11 3 28 2 37 -2 26 -11 53 -13 47 -3 -3 4 0 8 5 8 6 0 11 -4 11
-10 0 -5 5 -10 11 -10 5 0 8 4 4 9 -3 5 -1 13 5 16 6 4 9 1 8 -6 -2 -6 3 -14
11 -17 8 -2 11 0 7 6 -3 6 -2 14 4 17 6 4 9 1 8 -6 -2 -9 10 -13 34 -14 20 0
34 3 32 7 -3 4 0 8 5 8 6 0 11 -4 11 -10 0 -5 7 -10 15 -10 8 0 15 5 15 11 0
5 5 7 10 4 6 -3 10 0 10 7 0 9 3 9 10 -2 6 -10 10 -11 10 -2 0 6 7 12 16 12 9
0 12 -5 8 -12 -4 -7 2 -5 13 4 11 10 25 18 32 18 7 0 10 4 7 8 -2 4 4 8 15 8
10 0 19 -4 19 -8 0 -4 7 -5 15 -2 8 4 12 10 9 15 -3 5 2 6 11 3 8 -4 23 0 32
7 13 11 15 11 9 1 -6 -11 -4 -11 13 -3 12 6 30 16 41 21 12 6 25 8 29 5 5 -2
14 2 21 9 6 8 20 13 30 11 11 -2 24 4 30 13 6 11 10 12 10 4 0 -7 5 -10 10 -7
6 4 8 10 6 14 -3 4 9 6 25 5 20 -1 29 2 26 9 -2 7 6 13 19 14 48 4 54 7 54 22
0 13 2 13 9 2 6 -9 11 -10 15 -2 4 6 12 9 17 6 5 -4 9 1 9 9 0 9 5 16 11 16 5
0 7 -6 3 -12 -6 -9 -3 -9 9 0 9 8 21 11 26 7 7 -4 8 1 4 12 -3 10 -2 15 2 10
5 -4 19 0 33 9 14 9 21 11 17 4 -5 -8 -3 -11 6 -8 8 3 14 10 14 15 0 6 3 15 8
19 4 4 7 2 7 -5 0 -7 5 -9 10 -6 6 4 7 12 3 18 -4 7 0 6 10 -2 14 -11 18 -11
23 2 3 9 12 13 20 10 8 -3 14 -2 12 3 -2 5 -1 9 2 9 13 0 37 31 32 40 -3 6 2
4 11 -4 13 -10 17 -10 17 -1 0 7 7 10 16 6 12 -4 15 -2 10 9 -4 12 0 14 20 11
23 -4 24 -3 13 12 -8 9 -9 14 -4 9 4 -4 18 1 29 12 12 10 30 21 41 23 11 2 19
10 17 18 -3 11 0 11 15 0 10 -8 15 -10 11 -6 -9 10 29 46 48 46 7 0 18 8 23
17 6 10 11 14 11 10 0 -4 6 -2 14 5 8 7 12 16 9 21 -2 4 -1 7 4 6 20 -3 34 2
28 11 -3 5 0 10 8 10 8 0 22 10 31 22 9 13 14 17 10 9 -5 -9 -3 -12 4 -7 7 4
12 15 12 24 0 15 2 15 10 2 8 -13 10 -12 10 3 0 10 12 22 26 27 14 6 22 14 19
20 -3 5 -1 10 5 10 6 0 9 4 5 9 -3 6 3 8 14 6 15 -3 18 0 14 12 -4 11 -2 14 5
9 7 -4 12 -2 12 4 0 6 5 8 12 4 7 -4 8 -3 4 5 -9 13 20 45 33 36 6 -3 8 3 6
15 -2 11 1 23 7 26 7 5 8 2 3 -6 -5 -8 -3 -11 4 -9 7 3 12 8 11 12 -1 5 10 19
24 32 13 12 22 26 18 31 -4 4 1 4 11 1 10 -4 16 -3 12 3 -3 5 3 15 14 21 10 7
17 18 14 25 -2 7 5 15 16 19 12 3 19 11 16 16 -4 5 -2 9 3 9 5 0 15 13 22 29
8 21 17 28 28 24 10 -4 13 -2 8 5 -3 6 4 21 16 33 13 12 17 19 11 15 -7 -4
-13 -2 -13 5 0 6 8 9 19 6 17 -4 18 -2 10 20 -6 16 -6 22 1 18 13 -8 42 14 35
25 -3 5 2 16 11 24 8 9 13 16 9 16 -3 0 0 6 7 14 7 8 16 12 20 10 4 -3 5 5 3
16 -2 13 1 20 11 20 12 0 13 4 3 21 -8 15 -8 19 0 15 6 -4 18 -1 26 8 18 18
20 30 3 20 -10 -6 -10 -5 -1 8 7 8 10 18 6 22 -4 4 0 4 10 0 13 -4 17 -1 17
15 0 12 5 21 11 21 6 0 8 9 4 20 -4 11 -3 20 2 19 26 -4 35 1 24 15 -13 15 1
32 17 22 5 -3 6 8 4 25 -3 22 0 29 12 29 9 0 13 6 10 14 -3 8 0 17 5 21 6 3 9
11 6 16 -4 5 2 6 12 2 16 -6 16 -5 4 10 -11 14 -11 18 3 23 9 3 13 10 10 15
-3 5 0 9 5 9 6 0 11 9 11 20 0 11 5 20 11 20 8 0 7 5 -1 15 -11 13 -10 14 5 8
14 -5 17 -3 12 10 -3 9 -2 17 4 17 6 0 7 5 4 10 -3 6 -1 10 5 10 6 0 8 5 5 10
-4 6 -1 17 5 25 7 8 9 15 4 15 -4 0 1 7 12 16 10 8 13 13 7 9 -7 -3 -13 -1
-13 4 0 6 5 11 10 11 6 0 10 9 10 20 0 11 4 20 9 20 6 0 8 9 6 20 -3 13 2 20
13 21 11 0 13 2 4 6 -10 4 -10 8 0 21 11 13 11 15 -2 8 -8 -4 -6 0 4 8 11 9
16 16 12 16 -5 0 -4 6 1 12 18 23 24 50 10 43 -6 -4 -3 1 7 9 11 9 15 16 10
16 -6 0 -11 7 -11 15 0 8 4 12 9 9 8 -5 9 -4 13 33 1 13 8 30 15 38 11 13 10
15 -6 9 -15 -5 -14 -2 5 14 16 13 20 21 12 26 -9 6 -9 11 -1 21 7 8 9 19 5 25
-3 5 2 10 12 10 10 0 14 4 8 8 -14 10 -18 35 -4 26 8 -5 10 2 7 25 -3 22 -1
31 9 31 8 0 11 5 8 10 -4 6 -12 7 -18 3 -7 -4 -6 0 2 10 7 9 17 14 22 11 5 -3
6 2 3 10 -3 9 -11 13 -18 10 -6 -3 -2 2 8 10 15 12 16 16 5 16 -11 0 -11 2 -1
8 8 5 10 16 6 27 -6 14 -4 16 7 10 11 -7 11 -5 -1 10 -9 11 -10 16 -2 11 8 -5
12 0 13 16 0 13 3 34 5 48 3 14 6 42 7 63 1 26 6 36 15 32 8 -3 10 0 5 7 -10
17 -11 48 -2 54 5 2 6 11 3 18 -3 7 3 22 13 32 15 14 15 17 2 12 -12 -5 -16 0
-15 22 1 22 4 26 14 17 10 -8 12 -7 10 4 -2 8 -10 20 -18 27 -13 11 -13 12 0
10 11 -2 15 7 15 37 0 22 4 43 10 47 7 5 7 8 0 8 -6 0 -11 9 -11 19 0 11 4 17
9 14 4 -2 5 8 1 23 -4 16 -3 25 2 21 6 -3 11 3 11 14 2 18 0 19 -15 7 -15 -12
-16 -11 -3 5 7 9 10 17 6 17 -4 0 -2 6 4 14 8 9 11 117 11 371 -1 317 -3 360
-17 370 -13 10 -13 14 -3 20 9 6 11 4 5 -6 -6 -11 -5 -11 5 -2 10 9 10 15 -4
28 -21 21 -20 26 2 18 15 -6 15 -5 4 10 -8 9 -14 40 -15 69 -1 34 -7 58 -17
66 -13 11 -13 11 1 7 10 -4 16 0 16 9 0 8 -4 13 -9 10 -13 -8 -10 10 5 25 10
11 9 13 -6 8 -11 -4 -16 -3 -12 4 4 5 2 16 -5 24 -8 10 -8 15 1 21 7 4 9 3 6
-3 -3 -5 0 -10 8 -10 11 0 9 7 -6 28 -13 19 -16 30 -8 35 8 5 7 9 -2 14 -10 7
-10 12 -1 23 10 11 9 17 -3 27 -8 7 -12 16 -9 21 3 5 -1 9 -8 9 -9 0 -9 3 2
10 11 7 11 10 2 10 -9 0 -10 5 -2 19 7 14 7 22 -1 26 -6 4 -8 13 -5 21 3 9 -1
14 -12 15 -10 0 -12 3 -4 6 6 2 9 9 6 15 -6 10 -13 51 -16 96 -1 7 -8 10 -17
7 -12 -4 -12 -2 2 9 17 13 17 14 0 20 -15 6 -15 8 -3 16 10 6 11 10 3 10 -7 0
-10 7 -7 15 4 9 -4 24 -17 36 -13 11 -19 18 -12 14 16 -8 12 45 -5 64 -7 7
-10 22 -7 32 4 11 2 19 -5 19 -8 0 -8 6 1 21 9 17 8 20 -2 14 -9 -6 -11 -3 -6
9 4 9 3 14 -2 11 -5 -3 -12 -1 -15 4 -4 5 -2 12 4 16 15 9 12 25 -5 25 -8 0
-15 5 -15 11 0 5 4 7 10 4 6 -3 7 1 4 9 -3 9 -11 13 -17 9 -6 -4 -8 0 -4 10 3
10 2 17 -3 17 -5 0 -7 7 -3 15 3 9 -1 23 -9 33 -9 9 -14 28 -13 40 1 13 -4 26
-12 29 -7 3 -10 9 -7 14 3 5 -1 9 -8 9 -9 0 -9 3 2 10 8 5 10 10 4 10 -14 0
-38 55 -30 68 3 5 -3 20 -14 32 -15 17 -17 26 -9 36 8 10 6 12 -8 9 -12 -2
-20 2 -20 10 0 8 5 11 11 8 6 -4 5 0 -1 9 -7 8 -10 18 -6 21 3 4 -1 7 -10 7
-10 0 -15 7 -12 20 2 11 1 20 -3 20 -9 0 -32 49 -32 67 0 7 -5 13 -12 13 -6 0
-9 3 -5 6 3 4 0 13 -8 21 -8 8 -15 23 -15 34 0 14 -4 18 -12 13 -8 -5 -7 0 2
11 8 10 11 16 5 13 -14 -8 -38 19 -25 27 13 8 3 25 -13 25 -8 0 -8 -3 1 -9 11
-7 11 -9 -1 -14 -11 -4 -14 3 -12 29 1 19 -3 38 -8 41 -6 3 -7 1 -3 -5 4 -7 2
-12 -5 -12 -6 0 -9 8 -6 20 4 14 -4 28 -26 47 -22 18 -26 24 -12 20 18 -7 19
-6 3 6 -10 8 -15 17 -11 20 3 4 1 7 -6 7 -7 0 -17 14 -22 30 -6 17 -15 30 -21
30 -6 0 -8 7 -5 15 4 8 1 17 -5 21 -7 4 -8 3 -4 -4 4 -7 2 -12 -5 -12 -6 0 -9
8 -6 20 3 12 0 20 -8 20 -7 0 -19 8 -26 18 -13 15 -12 16 4 3 15 -12 17 -12
11 3 -3 9 -12 16 -20 16 -8 0 -11 6 -7 17 4 11 3 14 -5 9 -7 -4 -12 -1 -12 9
0 10 -5 13 -12 9 -7 -5 -8 -3 -3 6 5 8 2 17 -6 24 -8 6 -20 23 -28 38 -8 15
-19 24 -24 21 -6 -4 -8 0 -4 10 4 10 2 16 -5 14 -6 -1 -15 9 -19 23 -4 14 -7
19 -8 12 -1 -10 -4 -10 -15 0 -10 9 -11 15 -2 20 7 5 4 8 -8 8 -12 0 -16 5
-12 16 3 8 2 12 -4 9 -6 -3 -10 -2 -10 2 0 5 -7 18 -15 29 -15 19 -15 19 -10
-1 4 -13 1 -11 -7 5 -15 30 -29 41 -43 32 -5 -3 -4 2 4 11 11 14 11 17 0 17
-8 0 -23 14 -34 30 -11 16 -26 30 -33 30 -7 0 -10 5 -7 10 3 6 -1 10 -10 10
-11 0 -15 5 -11 16 3 9 2 12 -5 9 -11 -7 -49 22 -49 37 0 13 -19 30 -52 47
-15 8 -26 19 -25 25 1 6 -3 10 -10 9 -6 -2 -14 5 -17 15 -3 9 -15 23 -27 30
-18 12 -23 12 -31 0 -6 -9 -7 -6 -3 9 3 12 1 25 -6 29 -8 5 -10 2 -5 -7 5 -8
2 -8 -6 2 -7 9 -19 14 -26 11 -7 -2 -12 0 -11 5 4 22 -2 32 -18 26 -10 -4 -14
-2 -9 5 4 6 -3 12 -16 14 -14 2 -22 9 -20 18 2 8 0 12 -4 8 -4 -4 -15 2 -25
14 -13 14 -19 17 -20 7 0 -8 -4 -4 -9 9 -5 12 -15 22 -22 22 -9 0 -9 -3 2 -10
10 -7 11 -10 2 -10 -7 0 -15 6 -18 13 -2 7 -29 26 -59 42 -30 15 -52 32 -49
36 3 5 -3 6 -12 2 -12 -4 -15 -3 -10 5 5 8 2 10 -8 6 -8 -3 -27 5 -42 19 -17
16 -33 23 -47 19 -14 -3 -18 -1 -13 6 5 8 -2 12 -18 12 -14 0 -26 5 -26 10 0
6 -6 9 -12 8 -7 -2 -12 2 -11 8 1 6 -4 11 -12 11 -8 0 -12 -4 -9 -9 3 -4 0 -8
-5 -8 -6 0 -11 7 -11 16 0 8 -4 12 -10 9 -5 -3 -10 -1 -10 4 0 6 -5 11 -11 11
-5 0 -7 -6 -4 -12 4 -7 -1 -4 -9 6 -9 11 -16 15 -16 9 0 -6 -9 -9 -20 -6 -11
3 -20 9 -20 14 0 5 -5 9 -12 9 -6 0 -21 8 -32 18 -17 14 -18 14 -8 1 11 -15
10 -17 -12 -15 -17 1 -21 5 -15 12 6 8 2 10 -16 9 -14 -2 -25 2 -25 8 0 8 -3
8 -11 0 -9 -9 -18 -8 -35 4 -13 8 -24 11 -24 7 0 -5 -5 -2 -10 6 -5 8 -10 10
-10 4 0 -6 -7 -11 -15 -11 -8 0 -15 3 -15 7 0 9 -212 6 -227 -3 -6 -4 -13 -1
-15 5 -4 10 -6 10 -9 0z m1186 -462 c3 -5 1 -10 -4 -10 -6 0 -11 5 -11 10 0 6
2 10 4 10 3 0 8 -4 11 -10z m-3941 -4398 c3 -5 -1 -9 -9 -9 -8 0 -12 4 -9 9 3
4 7 8 9 8 2 0 6 -4 9 -8z m706 -1102 c0 -5 -2 -10 -4 -10 -3 0 -8 5 -11 10 -3
6 -1 10 4 10 6 0 11 -4 11 -10z m295 -288 c-3 -3 -11 0 -18 7 -9 10 -8 11 6 5
10 -3 15 -9 12 -12z"/>
<path d="M3990 6876 c0 -2 7 -7 16 -10 8 -3 12 -2 9 4 -6 10 -25 14 -25 6z"/>
<path d="M3386 6574 c-5 -14 -4 -15 9 -4 17 14 19 20 6 20 -5 0 -12 -7 -15
-16z"/>
<path d="M1300 5589 c0 -5 5 -7 10 -4 6 3 10 8 10 11 0 2 -4 4 -10 4 -5 0 -10
-5 -10 -11z"/>
<path d="M5166 452 c-3 -5 1 -9 9 -9 8 0 12 4 9 9 -3 4 -7 8 -9 8 -2 0 -6 -4
-9 -8z"/>
</g>
</svg>
