<svg xmlns="http://www.w3.org/2000/svg" style="display: none;">
  
    <symbol id="icon-instagram" viewBox="0 0 512 512">
      <path d="m426 407l0-185-39 0c4 12 6 25 6 38 0 24-6 46-18 66-13 20-29 36-50 48-21 12-44 18-69 18-37 0-69-13-96-39-27-26-40-57-40-93 0-13 2-26 6-38l-41 0 0 185c0 5 2 10 5 13 4 3 8 5 13 5l305 0c5 0 9-2 13-5 3-3 5-8 5-13z m-81-152c0-23-9-44-26-60-18-17-38-25-63-25-24 0-45 8-62 25-17 16-26 37-26 60 0 24 9 44 26 61 17 16 38 25 62 25 25 0 45-9 63-25 17-17 26-37 26-61z m81-103l0-47c0-5-2-10-6-14-4-4-8-6-14-6l-50 0c-5 0-10 2-14 6-4 4-5 9-5 14l0 47c0 6 1 10 5 14 4 4 9 6 14 6l50 0c6 0 10-2 14-6 4-4 6-8 6-14z m49-59l0 326c0 16-5 29-16 40-11 11-24 16-40 16l-326 0c-16 0-29-5-40-16-11-11-16-24-16-40l0-326c0-16 5-29 16-40 11-11 24-16 40-16l326 0c16 0 29 5 40 16 11 11 16 24 16 40z"/>
    </symbol>
  
    <symbol id="icon-youtube" viewBox="0 0 512 512">
      <path d="m314 355l0 61c0 12-4 19-11 19-5 0-9-2-13-6l0-86c4-5 8-7 13-7 7 0 11 7 11 19z m97 1l0 13-26 0 0-13c0-13 4-20 13-20 8 0 13 7 13 20z m-276-63l30 0 0-26-89 0 0 26 30 0 0 163 29 0z m82 163l25 0 0-141-25 0 0 108c-6 8-11 12-16 12-4 0-6-2-6-6-1-1-1-4-1-10l0-104-25 0 0 112c0 9 1 16 2 20 2 7 8 11 17 11 9 0 19-6 29-17z m122-42l0-57c0-13 0-23-2-28-3-11-10-16-20-16-10 0-19 5-27 16l0-62-25 0 0 189 25 0 0-14c9 11 17 16 27 16 10 0 17-5 20-16 2-5 2-14 2-28z m97-3l0-4-26 0c0 10 0 16-1 18-1 6-5 10-11 10-9 0-13-7-13-20l0-25 51 0 0-29c0-15-3-26-8-33-7-10-17-15-30-15-13 0-23 5-31 15-5 7-8 18-8 33l0 49c0 15 3 26 9 33 7 10 17 15 31 15 13 0 24-5 30-15 4-5 6-10 6-16 1-1 1-7 1-16z m-174-261l0-60c0-13-4-20-12-20-8 0-12 7-12 20l0 60c0 13 4 20 12 20 8 0 12-7 12-20z m206 215c0 44-3 77-8 100-2 11-8 20-16 28-9 7-18 12-29 13-35 4-88 6-159 6-71 0-124-2-159-6-11-1-20-6-29-13-8-8-14-17-16-28-5-22-8-55-8-100 0-45 3-78 8-100 2-12 8-21 16-29 9-7 18-12 30-13 35-4 87-6 158-6 71 0 124 2 159 6 11 1 20 6 29 13 8 8 14 17 16 29 5 21 8 54 8 100z m-285-365l29 0-35 114 0 77-28 0 0-77c-3-14-9-34-18-61-7-19-13-37-18-53l30 0 20 75z m105 95l0 50c0 16-2 27-8 34-7 10-17 14-30 14-13 0-23-4-30-14-5-7-8-19-8-34l0-50c0-15 3-26 8-33 7-10 17-15 30-15 13 0 23 5 30 15 6 7 8 18 8 33z m96-46l0 142-26 0 0-15c-10 12-20 17-29 17-9 0-15-3-17-10-2-5-3-12-3-22l0-112 26 0 0 105c0 6 1 9 1 10 0 4 2 6 6 6 5 0 10-4 16-12l0-109z"/>
    </symbol>
  
    <symbol id="icon-facebook" viewBox="0 0 512 512">
      <path d="m384 3l0 76-45 0c-17 0-28 3-33 10-6 7-9 17-9 31l0 54 84 0-11 85-73 0 0 216-87 0 0-216-73 0 0-85 73 0 0-62c0-36 10-63 29-83 20-19 47-29 80-29 28 0 49 1 65 3z"/>
    </symbol>
  
    <symbol id="icon-spotify" viewBox="0 0 512 512">
      <path d="m359 346c0-6-3-11-9-15-37-22-79-33-128-33-25 0-52 4-82 10-8 2-12 7-12 15 0 4 2 7 4 10 3 2 6 4 10 4 1 0 5-1 11-2 25-6 48-8 69-8 43 0 81 10 114 29 3 2 6 3 9 3 4 0 7-1 10-3 2-3 4-6 4-10z m27-62c0-7-3-13-10-17-45-27-97-40-157-40-29 0-58 4-86 12-9 2-14 8-14 18 0 5 2 9 5 12 3 3 8 5 12 5 2 0 5-1 11-2 23-7 47-10 72-10 53 0 99 12 139 36 5 2 8 3 11 3 5 0 9-1 12-5 3-3 5-7 5-12z m31-71c0-9-4-15-12-20-24-13-51-24-83-31-32-7-65-11-98-11-39 0-74 5-104 14-5 1-8 3-11 7-3 3-5 8-5 14 0 6 2 11 6 15 4 4 9 6 15 6 2 0 6-1 11-3 26-7 55-10 88-10 30 0 60 3 88 9 29 7 53 16 73 28 4 2 8 3 11 3 6 0 11-2 15-6 4-4 6-9 6-15z m58 43c0 40-9 77-29 110-20 34-46 60-80 80-33 20-70 29-110 29-40 0-77-9-110-29-34-20-60-46-80-80-20-33-29-70-29-110 0-40 9-77 29-110 20-34 46-60 80-80 33-20 70-29 110-29 40 0 77 9 110 29 34 20 60 46 80 80 20 33 29 70 29 110z"/>
    </symbol>
  
    <symbol id="icon-bell" viewBox="0 0 512 512">
      <path d="m261 485c0-3-2-5-5-5-11 0-21-4-29-12-8-8-12-18-12-29 0-3-2-5-5-5-3 0-4 2-4 5 0 14 5 26 14 35 10 10 22 15 36 15 3 0 5-1 5-4z m233-83c0 10-4 19-11 26-7 7-16 11-26 11l-128 0c0 20-7 37-21 52-15 14-32 21-52 21-20 0-37-7-52-21-14-15-21-32-21-52l-128 0c-10 0-19-4-26-11-7-7-11-16-11-26 10-8 18-16 26-25 8-9 16-20 25-34 8-14 15-29 21-45 6-16 10-36 14-59 4-23 6-48 6-74 0-29 11-56 33-81 22-25 52-40 88-45-2-4-2-8-2-12 0-7 2-14 8-19 5-5 11-8 19-8 8 0 14 3 19 8 6 5 8 12 8 19 0 4 0 8-2 12 36 5 66 20 88 45 22 25 33 52 33 81 0 26 2 51 6 74 4 23 8 43 14 59 6 16 13 31 21 45 9 14 17 25 25 34 8 9 16 17 26 25z"/>
    </symbol>
  
    <symbol id="icon-bookmark" viewBox="0 0 512 512">
      <path d="m406 37c4 0 8 0 12 2 7 3 12 7 15 12 4 5 6 11 6 18l0 368c0 6-2 12-6 18-3 5-8 9-15 11-3 2-8 3-12 3-9 0-17-3-24-10l-126-121-126 121c-7 7-15 10-24 10-4 0-8-1-12-3-7-2-12-6-15-11-4-6-6-12-6-18l0-368c0-7 2-13 6-18 3-5 8-9 15-12 4-2 8-2 12-2z"/>
    </symbol>
  
    <symbol id="icon-birthday-cake" viewBox="0 0 512 512">
      <path d="m512 402l0 110-512 0 0-110c9 0 17-1 24-4 8-2 14-5 17-8 4-2 8-6 14-10 5-5 10-9 14-11 4-2 10-3 16-3 7 0 12 1 16 3 4 2 9 6 15 11 6 4 10 8 14 11 3 2 9 5 16 7 8 3 16 4 25 4 8 0 17-1 24-4 8-3 13-5 17-8 3-2 8-6 13-10 4-4 8-6 10-8 2-2 5-3 9-4 3-2 7-2 12-2 7 0 12 1 16 3 4 2 9 6 15 11 5 4 10 8 13 10 4 3 10 6 17 8 8 3 16 4 24 4 9 0 17-1 25-4 7-2 13-5 17-8 3-2 8-6 13-10 6-5 11-9 15-11 4-2 9-3 16-3 6 0 12 1 16 3 4 2 9 6 14 11 6 4 10 8 14 10 3 3 9 6 17 8 7 3 15 4 24 4z m0-91l0 55c-7 0-12-1-16-3-4-3-9-6-15-11-5-5-10-9-13-11-4-3-9-5-17-8-7-3-16-4-24-4-9 0-17 1-25 4-7 3-13 5-16 8-4 2-8 6-14 11-4 3-7 6-9 7-2 2-5 3-9 5-4 1-8 2-13 2-6 0-12-1-16-3-4-3-9-6-14-11-6-5-10-9-14-11-3-3-9-5-16-8-8-3-16-4-25-4-9 0-17 2-24 4-8 3-13 6-17 8-3 2-8 6-14 11-4 3-7 6-9 7-2 2-5 3-9 5-3 1-8 2-12 2-7 0-12-1-16-3-4-3-9-6-15-11-5-5-10-8-13-11-4-3-10-5-17-8-8-3-16-4-25-4-8 0-17 1-24 4-8 3-13 5-17 8-3 2-8 6-13 11-6 5-11 8-15 11-4 2-9 3-16 3l0-55c0-15 5-28 16-39 11-11 24-16 39-16l18 0 0-128 73 0 0 128 73 0 0-128 74 0 0 128 73 0 0-128 73 0 0 128 18 0c15 0 28 5 39 16 11 11 16 24 16 39z m-366-247c0 15-3 26-10 34-7 8-16 12-26 12-10 0-19-4-26-11-7-7-11-16-11-26 0-5 1-10 3-14 2-5 4-8 7-10 2-2 5-5 8-8 4-3 7-6 9-9 3-3 5-7 7-13 2-5 3-12 3-19 7 0 15 7 23 21 9 14 13 29 13 43z m147 0c0 15-4 26-11 34-7 8-15 12-26 12-10 0-19-4-26-11-7-7-11-16-11-26 0-5 1-10 3-14 2-5 4-8 7-10 3-2 5-5 9-8 3-3 6-6 9-9 2-3 4-7 6-13 2-5 3-12 3-19 7 0 15 7 24 21 8 14 13 29 13 43z m146 0c0 15-4 26-10 34-7 8-16 12-27 12-10 0-18-4-26-11-7-7-10-16-10-26 0-5 1-10 2-14 2-5 4-8 7-10 3-2 6-5 9-8 3-3 6-6 9-9 3-3 5-7 7-13 1-5 2-12 2-19 8 0 15 7 24 21 9 14 13 29 13 43z"/>
    </symbol>
  
    <symbol id="icon-calendar" viewBox="0 0 512 512">
      <path d="m55 475l82 0 0-82-82 0z m100 0l92 0 0-82-92 0z m-100-100l82 0 0-92-82 0z m100 0l92 0 0-92-92 0z m-100-110l82 0 0-82-82 0z m210 210l92 0 0-82-92 0z m-110-210l92 0 0-82-92 0z m220 210l82 0 0-82-82 0z m-110-100l92 0 0-92-92 0z m-100-247l0-82c0-3-1-5-3-7-2-2-4-2-7-2l-18 0c-2 0-4 0-6 2-2 2-3 4-3 7l0 82c0 2 1 5 3 6 2 2 4 3 6 3l18 0c3 0 5-1 7-3 2-1 3-4 3-6z m210 247l82 0 0-92-82 0z m-110-110l92 0 0-82-92 0z m110 0l82 0 0-82-82 0z m9-137l0-82c0-3-1-5-3-7-2-2-4-2-6-2l-18 0c-3 0-5 0-7 2-2 2-3 4-3 7l0 82c0 2 1 5 3 6 2 2 4 3 7 3l18 0c2 0 4-1 6-3 2-1 3-4 3-6z m110-18l0 365c0 10-4 19-11 26-7 7-16 11-26 11l-402 0c-10 0-19-4-26-11-7-7-11-16-11-26l0-365c0-10 4-19 11-26 7-7 16-11 26-11l36 0 0-27c0-13 5-24 14-33 9-9 20-13 32-13l18 0c13 0 24 4 33 13 9 9 13 20 13 33l0 27 110 0 0-27c0-13 4-24 13-33 9-9 20-13 33-13l18 0c12 0 23 4 32 13 9 9 14 20 14 33l0 27 36 0c10 0 19 4 26 11 7 7 11 16 11 26z"/>
    </symbol>
  
    <symbol id="icon-youtube-play" viewBox="0 0 512 512">
      <path d="m366 256c0-7-3-12-9-15l-146-92c-6-4-12-4-19 0-6 3-9 8-9 16l0 182c0 8 3 13 9 16 3 2 6 3 9 3 4 0 7-1 10-3l146-92c6-3 9-8 9-15z m146 0c0 18 0 33 0 43 0 10-1 23-3 39-1 16-3 30-6 42-3 14-10 26-20 35-10 10-22 15-35 17-43 4-106 7-192 7-86 0-149-3-192-7-13-2-25-7-35-17-10-9-17-21-20-35-3-12-5-26-6-42-2-16-3-29-3-39 0-10 0-25 0-43 0-18 0-33 0-43 0-10 1-23 3-39 1-16 3-30 6-42 3-14 10-26 20-35 10-10 22-15 35-17 43-4 106-7 192-7 86 0 149 3 192 7 13 2 25 7 35 17 10 9 17 21 20 35 3 12 5 26 6 42 2 16 3 29 3 39 0 10 0 25 0 43z"/>
    </symbol>
  
    <symbol id="icon-date" viewBox="0 0 512 512">
      <path d="m55 475l402 0 0-292-402 0z m110-347l0-82c0-3-1-5-3-7-2-2-4-2-7-2l-18 0c-3 0-5 0-6 2-2 2-3 4-3 7l0 82c0 3 1 5 3 7 1 1 3 2 6 2l18 0c3 0 5-1 7-2 2-2 3-4 3-7z m219 0l0-82c0-3-1-5-3-7-1-2-3-2-6-2l-18 0c-3 0-5 0-7 2-2 2-3 4-3 7l0 82c0 3 1 5 3 7 2 1 4 2 7 2l18 0c3 0 5-1 6-2 2-2 3-4 3-7z m110-18l0 365c0 10-4 19-11 26-7 7-16 11-26 11l-402 0c-10 0-19-4-26-11-7-7-11-16-11-26l0-365c0-10 4-19 11-26 7-7 16-11 26-11l36 0 0-27c0-13 5-24 14-33 9-9 20-13 32-13l18 0c13 0 24 4 33 13 9 9 13 20 13 33l0 27 110 0 0-27c0-13 4-24 13-33 9-9 20-13 33-13l18 0c12 0 23 4 32 13 9 9 14 20 14 33l0 27 36 0c10 0 19 4 26 11 7 7 11 16 11 26z"/>
    </symbol>
  
    <symbol id="icon-ticket" viewBox="0 0 512 512">
      <path d="m293 129l90 90-164 164-90-90z m-61 280l177-177c3-3 5-8 5-13 0-5-2-9-5-12l-104-104c-3-3-7-5-12-5-6 0-10 2-13 5l-177 177c-3 3-5 8-5 13 0 5 2 9 5 12l104 104c3 3 7 5 12 5 6 0 10-2 13-5z m254-182l-259 259c-7 7-16 11-26 11-10 0-19-4-26-11l-36-36c11-10 16-23 16-39 0-15-5-28-16-38-10-11-23-16-38-16-16 0-29 5-39 16l-36-36c-7-7-11-16-11-26 0-10 4-19 11-26l259-259c7-7 16-11 26-11 10 0 19 4 26 11l36 36c-11 10-16 23-16 39 0 15 5 28 16 38 10 11 23 16 38 16 16 0 29-5 39-16l36 36c7 7 11 16 11 26 0 10-4 19-11 26z"/>
    </symbol>
    <symbol xmlns="http://www.w3.org/2000/svg" id="icon-map-marker" viewBox="0 0 512 512">
      <path d="m329 183c0-20-7-38-21-52-15-14-32-21-52-21-20 0-37 7-52 21-14 14-21 32-21 52 0 20 7 37 21 52 15 14 32 21 52 21 20 0 37-7 52-21 14-15 21-32 21-52z m73 0c0 21-3 38-9 51l-104 221c-3 6-8 11-14 15-6 4-12 5-19 5-7 0-13-1-19-5-6-4-11-9-14-15l-104-221c-6-13-9-30-9-51 0-41 14-75 43-104 28-28 63-42 103-42 40 0 75 14 103 42 29 29 43 63 43 104z"/>
    </symbol>
    <symbol xmlns="http://www.w3.org/2000/svg" id="icon-info" viewBox="0 0 512 512">
      <path d="m347 384l0 37c0 5-1 9-5 12-4 4-8 6-13 6l-146 0c-5 0-9-2-13-6-4-3-5-7-5-12l0-37c0-5 1-9 5-13 4-3 8-5 13-5l18 0 0-110-18 0c-5 0-9-2-13-5-4-4-5-8-5-13l0-37c0-5 1-9 5-13 4-3 8-5 13-5l110 0c5 0 9 2 12 5 4 4 6 8 6 13l0 165 18 0c5 0 9 2 13 5 4 4 5 8 5 13z m-36-329l0 55c0 5-2 9-6 13-3 3-7 5-12 5l-74 0c-5 0-9-2-12-5-4-4-6-8-6-13l0-55c0-5 2-9 6-13 3-4 7-5 12-5l74 0c5 0 9 1 12 5 4 4 6 8 6 13z"/>
    </symbol>
  
</svg>
